Patient4_TMGait_0pt6_02_right_38_EMG.mot
version=1
nRows=36
nColumns=33
inDegrees=no
endheader
time	1LAddLong	2LGlutMax	3LGlutMed	4LIliopsoas	5LSemiMemb	6LBicFemLong	7LRecFem	8LVastMed	9LVastLat	10LGasMed	11LTibAnt	12lTibPost	13LPeroneusLong	14LSol	15LExtDigLong	16LFlexDigLong	17RAddLong	18RGlutMax	19RGlutMed	20RIliopsoas	21RSemiMemb	22RBicFemLong	23RRecFem	24RVastMed	25RVastLat	26RGasMed	27RTibAnt	28RTibPost	29RPeroneusLong	30RSol	31RExtDigLong	32RFlexDigLong
46.645	-0.022888	0.439	-0.023346	0.000153	0.001526	-0.22064	0.1149	0.014343	0.059814	-0.012207	-0.001068	0.003204	0.11108	0.022888	-0.032654	0.00946	0.063477	-0.066986	-0.88394	-0.040283	0.1149	0.14542	-0.40436	0.05661	-0.016785	0.12772	0.011444	0.061188	0.17914	-0.031891	-0.005493	-0.016785
46.646	-0.016632	0.39581	0.002289	0.019531	-0.042877	-0.081787	0.054474	0.010376	0.093079	-0.005188	0.000916	-0.002136	-0.072021	0.009308	-0.023346	0.01236	0.06073	-0.022125	-0.94879	-0.051117	-0.26245	0.32516	-0.40543	0.10696	-0.036163	0.050659	0.034332	0.01236	0.11993	0.058594	-0.000763	-0.021362
46.647	0.011902	0.31616	0.027924	0.015259	0.014038	-0.12848	0.022278	0.006104	0.075684	0.014496	0.019836	0.001678	-0.16052	0.004425	-0.026855	0.014496	-0.013428	-0.004578	-0.73715	-0.030823	-0.36484	0.737	-0.51422	0.15442	0.023499	-0.019531	0.053406	-0.022278	0.11795	0.2565	0.000763	-0.02182
46.648	0.039063	0.25177	0.030212	0.012512	0.11261	-0.13931	0.015717	0.000305	0.04776	0.03006	0.023956	0.001678	0.09964	0.006256	-0.036163	-0.006561	-0.03067	-0.090179	-0.5835	-0.057831	-0.31769	0.88684	-0.42267	0.065308	0.012207	-0.019073	0.068359	0.036163	0.070038	0.21942	0	-0.011292
46.649	0.059357	0.17395	0.039368	0.011139	0.1973	-0.1149	0.001373	-0.021362	0.037384	0.035706	0.014954	0.003357	0.015717	0.047455	0.007172	0.014191	0.00473	-0.12711	-0.34912	-0.10895	0.13184	0.45151	-0.23529	-0.017548	0.038147	0.013428	0.012207	0.033722	0.075531	0.021667	-0.001068	-0.013275
46.65	0.058289	0.13565	0.003967	0.010376	0.17044	-0.001831	0.054932	-0.023651	0.015411	0.0177	0.009613	0.003052	-0.16251	0.093689	0.046844	-0.000153	-0.009155	-0.13489	-0.87509	-0.077057	0.3038	-0.089264	-0.2446	0.026398	0.092773	0.001831	-0.001984	-0.079041	-0.009918	-0.009155	0.000153	-0.01236
46.651	0.041962	0.098419	-0.016174	-0.006866	0.12283	0.11612	0.092773	-0.037231	0.019226	0.040436	0.011292	0.006561	0.080566	0.039368	0.019836	0.012054	-0.032501	-0.11719	-0.69382	-0.002899	0.23331	-0.60745	-0.26855	0.052948	0.086975	-0.04425	0.018463	-0.004272	-0.061035	0.58334	-0.003052	-0.010071
46.652	0.020294	-0.004425	-0.015259	-0.001526	0.069122	0.067902	0.061798	-0.019989	0.038452	0.028687	-0.005035	0.006866	0.15121	0.042419	0.045776	0.011902	-0.045624	-0.096893	0.42511	0.13977	0.3714	-0.24185	-0.23972	-0.009766	0.055389	-0.032043	0.031891	0.047607	-0.0914	0.28107	-0.001526	-0.001678
46.653	0.001221	-0.001984	-0.024109	0.015259	-0.000153	0.002289	0.051422	-0.015869	0.007324	-0.019989	-0.020142	0.00824	0.29846	0.12009	0.081177	0.003967	-0.096283	-0.1651	0.2948	0.1001	0.37872	0.020905	-0.31281	0.048981	0.050812	-0.056305	0.013733	-0.07431	-0.050201	0.10651	-0.001526	-0.002136
46.654	-0.002136	0.006561	-0.020599	0.014954	-0.004883	-0.10834	0.037689	-0.003662	0.062561	-0.03891	-0.008087	0.005493	0.33447	0.16312	0.041962	0.006409	-0.075989	-0.18509	-0.25238	0.074921	0.31693	-0.001678	-0.20645	-0.068207	-0.016785	-0.06897	-0.004272	-0.20233	-0.023499	0.2832	0.000916	-0.00351
46.655	-0.001984	0.081024	-0.03006	0.007629	0.049133	-0.19089	0.068665	0.011444	0.12238	-0.023804	0.00473	0.010681	0.027924	0.1889	0.015411	0.017242	-0.052643	-0.14053	-0.43564	0.082397	0.22903	-0.06958	-0.19913	-0.12024	-0.04303	-0.060272	0.041656	0.19196	0.042267	0.21805	-0.002441	-0.007782
46.656	0.057678	0.081635	-0.0383	0.019684	0.090485	-0.10315	0.047455	0.023346	0.084686	-0.024414	0.001984	0.00946	-0.11398	0.091553	-0.00885	0.016479	-0.012665	-0.12909	-0.67551	0.005035	0.17838	-0.13153	-0.19501	-0.1149	-0.052338	-0.030823	0.033417	0.075378	0.053101	0.29312	-0.00061	-0.004272
46.657	-0.071411	0.046692	0.016632	0.014191	0.062408	-0.004578	0.069427	0.024109	-0.026245	0.00061	-0.001221	0.000916	-0.4306	-0.001831	-0.046539	0.013885	0.005341	-0.15595	-0.71381	0.089569	0.032196	-0.095673	-0.13199	-0.12558	-0.068359	0.062561	-0.086517	0.038605	0.087738	0.48538	-0.003815	-0.00061
46.658	0.030212	0.03067	0.010681	-0.007172	0.029907	0.029449	0.097656	0.022125	-0.073242	0.061493	0.024567	0.016327	-0.65323	-0.084229	-0.11719	0.009155	0.007019	-0.18829	-0.13534	0.14847	0.082092	-0.289	-0.12573	-0.10025	-0.061493	0.089722	0.095367	0.023499	0.032043	0.2565	-0.003815	-0.005188
46.659	-0.021515	0.070801	0.039368	-0.007935	-0.039978	-0.052643	0.015106	0.013885	-0.00412	0.070801	0.023193	-0.001831	-0.039368	-0.12299	-0.17731	0.021973	-0.020599	-0.080719	0.016327	0.075226	0.040436	-0.25742	-0.15823	-0.001984	-0.026398	0.020294	0.30792	0.008698	0.079956	-0.24094	-0.002899	-0.016479
46.66	-0.011292	0.054474	-0.006866	0.001526	-0.080872	0.038452	-0.062408	-0.007935	0.089722	0.042572	0.001831	-0.005188	0.13657	-0.10025	-0.098419	0.013428	-0.014038	-0.14999	0.30548	0.013275	-0.18997	-0.10651	-0.31632	0.020599	-0.009766	-0.066376	0.15381	0.002441	0.046844	-0.72052	-0.000763	-0.020142
46.661	-0.017242	0.045471	-0.063019	-0.005798	-0.099792	0.084686	-0.063324	-0.014801	0.076447	0.014191	0.005188	-0.001984	0.1471	0.037537	0.012512	0.015259	0.002747	-0.30304	-0.18662	-0.089264	-0.54413	-0.10147	-0.27313	-0.051727	-0.039825	-0.059204	-0.23453	-0.001526	-0.066986	-0.48874	-0.003052	-0.015259
46.662	-0.021667	0.042572	-0.06424	-0.004425	-0.11932	0.083008	0.012207	-0.02182	0.078735	-0.019989	-0.003357	0.008698	0.06012	0.020294	0.053864	0.010986	-0.023499	-0.29572	0.29236	-0.1091	-0.2214	-0.029449	-0.18921	-0.058899	-0.09079	-0.077362	-0.48157	-0.011292	-0.1915	-0.11978	-0.004272	-0.019226
46.663	-0.026855	0.034485	0.003662	0.001068	-0.059509	0.15167	0.069885	-0.010529	-0.018005	-0.016937	0.003052	0.012512	-0.19409	-0.16556	0.011139	0.005035	-0.042419	-0.29678	0.56442	-0.041962	0.10864	-0.19043	-0.35324	-0.031128	-0.10468	-0.067902	-0.11078	-0.020142	-0.15366	-0.10193	-0.003052	-0.017395
46.664	-0.032501	0.008087	0.10788	0.00946	-0.058289	0.15137	0.066223	0.005188	-0.12405	-0.00885	0.019379	0.007172	-0.35889	-0.25925	-0.000916	-0.001526	-0.04303	-0.25864	-0.040131	0.027466	0.22797	-0.30548	-0.4361	0.028534	-0.084229	0.092316	0.18188	-0.027008	0.057526	-0.04364	-0.007477	-0.009308
46.665	-0.022888	-0.097656	0.1149	0.011139	-0.11139	0.1059	0.082703	-0.001221	-0.095825	0.015717	0.010834	0.01236	-0.15686	-0.13702	0.018921	0.011444	0.038605	-0.35767	-0.27496	0.06958	-0.039673	-0.17944	-0.42343	0.016479	0.043488	0.11902	0.10468	-0.015106	0.19562	-0.03006	-0.002899	0.000305
46.666	-0.016327	-0.092621	0.081177	0.014954	-0.030823	-0.086975	0.079956	-0.005951	-0.15243	0.052643	0.002136	0.022583	0.12253	-0.005035	-0.000305	0.007629	0.098419	-0.33417	-0.4686	0.050812	-0.32013	-0.055389	-0.48065	-0.1503	0.090332	0.075836	0.06958	-0.02243	-0.053406	0.07309	-0.001678	0.002136
46.667	-0.002289	-0.079498	0.061035	-0.003357	0.021973	-0.038147	0.11002	-0.004883	-0.14786	0.061035	-0.002136	0.022278	0.30624	-0.07843	-0.012665	0.007172	0.066681	-0.31586	-0.28564	0.036774	-0.48401	-0.073395	-0.53558	-0.17929	0.14679	0.048981	0.096741	-0.060577	-0.18387	0.5069	-0.001678	-0.007477
46.668	0.007019	-0.09491	0.030365	-0.007935	-0.027466	0.098419	0.089264	-0.007324	-0.092621	0.054321	0.01358	0.022278	0.060272	-0.085297	0.018921	0.01236	0.006104	-0.26642	-0.16373	-0.048676	-0.12192	-0.033264	-0.32577	-0.12756	0.12634	0.030823	0.033264	-0.31189	-0.345	0.35934	-0.003815	-0.011902
46.669	0.002136	-0.092926	0.005951	-0.007935	0.003357	0.29846	0.070343	-0.000305	-0.05249	0.06012	0.016937	0.028839	0.29648	-0.046387	0.032959	0.002136	0.02182	-0.17014	0.075684	-0.072784	0.36453	0.27176	-0.336	0.012665	0.10407	0.029907	0.033722	0.098419	-0.51544	0.35431	-0.001984	-0.023041
46.67	0.005951	-0.12787	0.021362	0.024719	-0.054932	0.47089	0.050812	0.010071	-0.046692	0.045624	-0.001221	0.024414	0.13031	0.14816	0.045471	0.016479	-0.055084	-0.17273	0.20477	-0.066071	0.47928	0.37384	-0.32516	0.023499	0.066986	0.028992	0.064392	0.24109	-0.32959	-0.15182	-0.002747	-0.031586
46.671	0.015717	-0.21805	0.09903	0.072784	-0.063019	0.27191	0.003967	0.02533	-0.009155	0.052643	-0.007935	0.026398	-0.16205	0.21896	-0.001678	0.009003	-0.05188	-0.17868	-0.069275	-0.032654	-0.19562	0.44861	-0.28336	0.052185	0.027771	0.007935	-0.018768	-0.3717	0.20218	-0.69488	-0.000305	-0.019073
46.672	0.012207	-0.30594	0.027161	0.037994	0.030975	0.10956	0.006714	0.036774	0.014038	0.06424	0.011444	0.032349	-0.050812	0.25085	-0.020294	0.000763	-0.016022	-0.10391	0.21454	-0.017548	-0.081482	0.37186	-0.2063	0.04715	-0.003357	-0.006714	-0.083466	0.10544	0.034332	-0.45059	-0.001526	-0.028534
46.673	0.004883	-0.41718	-0.027924	0.027466	0.022278	-0.026093	-0.029755	0.032959	0.011749	0.060577	0.007324	0.025787	-0.051422	0.26093	-0.002594	-0.000458	0.017853	-0.1442	0.65613	-0.066681	0.5574	0.11276	-0.15106	0.044861	0.003967	-0.02533	-0.020599	-0.026855	0.16327	-0.087585	-0.00061	-0.017548
46.674	0.00885	-0.43854	-0.058441	0.002136	0.054932	-0.3157	-0.073242	0.031281	-0.05188	0.068817	0.00885	0.031586	0.43243	0.14893	-0.016022	-0.00351	0.030823	-0.14099	0.69076	-0.029144	0.62241	-0.1004	-0.077362	0.054932	0.010681	-0.005798	0.033112	0.058594	0.42267	-0.18234	-0.002441	-0.026398
46.675	0.01236	-0.41382	0.016937	0.021057	0.014496	-0.17944	-0.047455	0.016174	-0.058746	0.046692	0.006866	0.033264	0.27588	0.036926	-0.029907	-0.000458	0.011902	-0.13092	0.029755	0.045471	0.52689	-0.17639	0.020142	0.052948	-0.038757	-0.002747	0.041046	0.15091	0.33752	0.14618	-0.00473	-0.022125
46.676	0.00351	-0.47012	0.091553	0.013275	-0.07782	-0.3952	0.010986	0.022583	0.071564	-0.005798	-0.025635	0.040588	-0.05661	-0.006714	0.010071	-0.006866	-0.014648	-0.16083	0.43182	0.011902	0.24445	-0.12085	0.069427	0.032654	-0.049896	0.00061	0.034637	0.17593	0.19272	0.45975	-0.000305	-0.02243
46.677	0.029907	-0.37262	0.10071	0.016479	-0.032043	-0.62546	0.016327	0.015717	0.25574	-0.056152	-0.02533	0.041199	-0.066528	-0.15015	-0.010376	-0.027008	-0.015564	-0.12863	0.27283	-0.039825	-0.058289	-0.048981	0.11704	0.011292	-0.11841	0.009003	-0.17059	0.10284	0.11536	0.53253	-0.00061	-0.029907
46.678	0.035553	-0.43716	0.095367	0.011597	-0.006256	-0.5069	0.020447	-0.006104	0.30502	-0.018158	0.018616	0.044556	-0.20859	-0.23163	-0.097961	-0.030975	0.001984	-0.15518	0.21271	-0.042114	-0.009766	-0.13992	0.06424	-0.069427	-0.19577	0.010071	-0.089111	0.027771	-0.021057	0.31174	-0.003967	-0.027771
46.679	0.038605	-0.47775	0.044098	0.018158	-0.01709	-0.4985	-0.043335	-0.00412	0.29266	-0.008087	0.040436	0.031586	-0.59448	-0.02243	-0.090942	0.002747	-0.000458	-0.14542	0.17929	-0.005341	0.17288	-0.24338	-0.24063	-0.13809	-0.20645	0.014343	0.032349	-0.001068	-0.09613	0.12222	-0.006714	-0.027618
46.68	0.045471	-0.49545	0.002289	0.018616	0.036926	-0.45288	-0.056305	-0.019989	0.16602	-0.013123	0.029144	0.010529	-0.47028	0.19318	-0.11658	-0.002136	-0.03479	-0.1358	0.23178	0.029297	0.25146	-0.17899	-0.53009	-0.094604	-0.16266	0.001068	-0.006866	-0.002899	-0.087433	0.013733	-0.00473	-0.023193
